<svg preserveAspectRatio="xMidYMid meet" data-bbox="11.426 65.595 179.025 51.085" xmlns="http://www.w3.org/2000/svg" width="200" height="200" viewBox="11.426 65.595 179.025 51.085" data-type="color" role="img" aria-labelledby="svgcid--mre2lyjf8qpw" style=""><defs><style>#comp-jyps0uwg svg [data-color="1"] {fill: #120E0E;}</style></defs><title id="svgcid--mre2lyjf8qpw">Home</title>
    <g>
        <path fill="#2b2b2b" d="M163.428 83.512a2.228 2.228 0 0 1-3.02.97 2.275 2.275 0 0 1 1.017 2.963l.017.007a2.219 2.219 0 0 1 2.885-.927l.01-.015a2.276 2.276 0 0 1-.909-2.998z" data-color="1"></path>
        <path fill="#2b2b2b" d="M169.663 82.24l.006-.009a1.375 1.375 0 0 1-.549-1.811 1.346 1.346 0 0 1-1.825.586c.652.338.917 1.129.615 1.79l.01.004a1.34 1.34 0 0 1 1.743-.56z" data-color="1"></path>
        <path fill="#2b2b2b" d="M175.89 86.259a1.375 1.375 0 0 1-.549-1.811c-.34.67-1.156.933-1.825.586.652.338.917 1.129.615 1.79l.01.004a1.34 1.34 0 0 1 1.743-.56l.006-.009z" data-color="1"></path>
        <path fill="#2b2b2b" d="M185.354 87.838c-.34.67-1.156.933-1.825.586.652.338.917 1.129.615 1.79l.01.004a1.34 1.34 0 0 1 1.743-.56l.006-.009a1.375 1.375 0 0 1-.549-1.811z" data-color="1"></path>
        <path fill="#2b2b2b" d="M169.879 87.204a.665.665 0 0 1-.266-.876.652.652 0 0 1-.883.284.664.664 0 0 1 .297.866l.005.002a.649.649 0 0 1 .843-.271l.004-.005z" data-color="1"></path>
        <path fill="#2b2b2b" d="M171.267 86.3a.661.661 0 0 1-.216.908.655.655 0 0 1 .887.202l.004-.003a.658.658 0 0 1 .206-.867l-.002-.005a.654.654 0 0 1-.879-.235z" data-color="1"></path>
        <path fill="#2b2b2b" d="M164.979 84.052a.661.661 0 0 1-.216.908.655.655 0 0 1 .887.202l.004-.003a.658.658 0 0 1 .206-.867l-.002-.005a.656.656 0 0 1-.879-.235z" data-color="1"></path>
        <path fill="#2b2b2b" d="M169.933 88.853a.661.661 0 0 1-.216.908.655.655 0 0 1 .887.202l.004-.003a.658.658 0 0 1 .206-.867l-.002-.005a.654.654 0 0 1-.879-.235z" data-color="1"></path>
        <path fill="#2b2b2b" d="M176.059 88.184a.661.661 0 0 1-.216.908.655.655 0 0 1 .887.202l.004-.003a.658.658 0 0 1 .206-.867l-.002-.005a.656.656 0 0 1-.879-.235z" data-color="1"></path>
        <path fill="#2b2b2b" d="M171.729 82.908l.004-.003a.658.658 0 0 1 .206-.867l-.002-.005a.655.655 0 0 1-.879-.235.661.661 0 0 1-.216.908.655.655 0 0 1 .887.202z" data-color="1"></path>
        <path fill="#2b2b2b" d="M181.879 85.747l.004-.003a.658.658 0 0 1 .206-.867l-.002-.005a.655.655 0 0 1-.879-.235.661.661 0 0 1-.216.908.655.655 0 0 1 .887.202z" data-color="1"></path>
        <path fill="#2b2b2b" d="M181.341 89.542a.661.661 0 0 1-.216.908.655.655 0 0 1 .887.202l.004-.003a.658.658 0 0 1 .206-.867l-.002-.005a.655.655 0 0 1-.879-.235z" data-color="1"></path>
        <path fill="#2b2b2b" d="M187.782 89.456a.661.661 0 0 1-.216.908.655.655 0 0 1 .887.202l.004-.003a.658.658 0 0 1 .206-.867l-.002-.005a.654.654 0 0 1-.879-.235z" data-color="1"></path>
        <path fill="#2b2b2b" d="M179.78 87.384a.652.652 0 0 1-.883.284.665.665 0 0 1 .297.866l.005.002a.649.649 0 0 1 .843-.271l.003-.005a.666.666 0 0 1-.265-.876z" data-color="1"></path>
        <path fill="#2b2b2b" d="M173.776 89.286a.652.652 0 0 1-.883.284.665.665 0 0 1 .297.866l.005.002a.649.649 0 0 1 .843-.271l.003-.005a.665.665 0 0 1-.265-.876z" data-color="1"></path>
        <path fill="#2b2b2b" d="M178.595 84.859a.325.325 0 0 1-.441.142.332.332 0 0 1 .149.433l.003.001a.325.325 0 0 1 .422-.136l.001-.002a.332.332 0 0 1-.134-.438z" data-color="1"></path>
        <path fill="#2b2b2b" d="M167.228 84.749a.325.325 0 0 1-.441.142.332.332 0 0 1 .149.433l.002.001a.325.325 0 0 1 .422-.136l.001-.002a.331.331 0 0 1-.133-.438z" data-color="1"></path>
        <path fill="#2b2b2b" d="M165.309 87.677a.325.325 0 0 1-.441.142.332.332 0 0 1 .149.433l.002.001a.325.325 0 0 1 .422-.136l.001-.002a.332.332 0 0 1-.133-.438z" data-color="1"></path>
        <path fill="#2b2b2b" d="M187.317 87.083a.325.325 0 0 1-.441.142.333.333 0 0 1 .149.433l.003.001a.325.325 0 0 1 .422-.136l.001-.002a.33.33 0 0 1-.134-.438z" data-color="1"></path>
        <path fill="#2b2b2b" d="M161.439 82.981l.002.001a.325.325 0 0 1 .422-.136l.001-.002a.332.332 0 0 1-.133-.438.325.325 0 0 1-.441.142.332.332 0 0 1 .149.433z" data-color="1"></path>
        <path fill="#2b2b2b" d="M170.177 84.569l.002.001a.325.325 0 0 1 .422-.136l.001-.002a.332.332 0 0 1-.133-.438.325.325 0 0 1-.441.142.332.332 0 0 1 .149.433z" data-color="1"></path>
        <path fill="#2b2b2b" d="M165.305 82.374l.003.001a.325.325 0 0 1 .422-.136l.001-.002a.332.332 0 0 1-.133-.438.325.325 0 0 1-.441.142.333.333 0 0 1 .148.433z" data-color="1"></path>
        <path fill="#2b2b2b" d="M179.508 83.702l.002.001a.325.325 0 0 1 .422-.136l.001-.002a.332.332 0 0 1-.133-.438.325.325 0 0 1-.441.142.332.332 0 0 1 .149.433z" data-color="1"></path>
        <path fill="#2b2b2b" d="M190.186 87.898a.652.652 0 0 1-.883.284.664.664 0 0 1 .297.866l.005.002a.649.649 0 0 1 .843-.271l.003-.005a.666.666 0 0 1-.265-.876z" data-color="1"></path>
        <path fill="#2b2b2b" d="M183.807 86.222l.005.002a.649.649 0 0 1 .843-.271l.003-.005a.665.665 0 0 1-.266-.876.652.652 0 0 1-.883.284.665.665 0 0 1 .298.866z" data-color="1"></path>
        <path fill="#2b2b2b" d="M173.31 82.719l.005.002a.649.649 0 0 1 .843-.271l.003-.005a.665.665 0 0 1-.266-.876.652.652 0 0 1-.883.284.666.666 0 0 1 .298.866z" data-color="1"></path>
        <path fill="#2b2b2b" d="M176.033 83.685l.005.002a.649.649 0 0 1 .843-.271l.003-.005a.665.665 0 0 1-.266-.876.652.652 0 0 1-.883.284.665.665 0 0 1 .298.866z" data-color="1"></path>
        <path fill="#2b2b2b" d="M151.392 73.36l.008-.001c-.009-.525.37-.973.872-1.031v-.008c-.518.017-.957-.392-.987-.935.031.557-.378 1.04-.913 1.08.522-.04.969.359 1.02.895z" data-color="1"></path>
        <path fill="#2b2b2b" d="M156.664 73.499l.008-.001c-.009-.525.37-.973.872-1.031v-.008c-.518.017-.957-.392-.987-.935.031.557-.378 1.04-.913 1.08.523-.04.969.359 1.02.895z" data-color="1"></path>
        <path fill="#2b2b2b" d="M164.042 71.762l.008-.001c-.009-.525.37-.973.872-1.031v-.008c-.518.017-.957-.392-.987-.935.031.557-.378 1.04-.913 1.08.522-.04.969.359 1.02.895z" data-color="1"></path>
        <path fill="#2b2b2b" d="M153.264 75.46a.466.466 0 0 1 .493.434l.004-.001a.488.488 0 0 1 .422-.499v-.004a.47.47 0 0 1-.478-.452.489.489 0 0 1-.441.522z" data-color="1"></path>
        <path fill="#2b2b2b" d="M148.875 77.521l.004-.001a.488.488 0 0 1 .422-.499v-.004a.47.47 0 0 1-.478-.452.49.49 0 0 1-.442.522.47.47 0 0 1 .494.434z" data-color="1"></path>
        <path fill="#2b2b2b" d="M154.714 74.278a.495.495 0 0 1 .193.659.465.465 0 0 1 .619-.216l.001-.004a.494.494 0 0 1-.184-.63l-.003-.002a.463.463 0 0 1-.626.193z" data-color="1"></path>
        <path fill="#2b2b2b" d="M150.231 75.952a.465.465 0 0 1 .619-.216l.001-.004a.494.494 0 0 1-.184-.63l-.003-.002a.462.462 0 0 1-.625.192.497.497 0 0 1 .192.66z" data-color="1"></path>
        <path fill="#2b2b2b" d="M155.619 76.858l.001-.004a.494.494 0 0 1-.184-.63l-.003-.002a.462.462 0 0 1-.625.192.493.493 0 0 1 .192.659.465.465 0 0 1 .619-.215z" data-color="1"></path>
        <path fill="#2b2b2b" d="M158.967 73.422l-.003-.002a.462.462 0 0 1-.625.192.493.493 0 0 1 .192.659.465.465 0 0 1 .619-.216l.001-.004a.49.49 0 0 1-.184-.629z" data-color="1"></path>
        <path fill="#2b2b2b" d="M153.164 72.165a.465.465 0 0 1 .619-.216l.001-.004a.494.494 0 0 1-.184-.63l-.003-.002a.462.462 0 0 1-.625.192c.228.125.314.42.192.66z" data-color="1"></path>
        <path fill="#2b2b2b" d="M160.429 70.025a.465.465 0 0 1 .619-.216l.001-.004a.494.494 0 0 1-.184-.63l-.003-.002a.462.462 0 0 1-.625.192.497.497 0 0 1 .192.66z" data-color="1"></path>
        <path fill="#2b2b2b" d="M162.887 72.867l.001-.004a.494.494 0 0 1-.184-.63l-.003-.002a.462.462 0 0 1-.625.192.493.493 0 0 1 .192.659.465.465 0 0 1 .619-.215z" data-color="1"></path>
        <path fill="#2b2b2b" d="M166.822 70.309a.494.494 0 0 1-.184-.63l-.003-.002a.462.462 0 0 1-.625.192.493.493 0 0 1 .192.659.465.465 0 0 1 .619-.216l.001-.003z" data-color="1"></path>
        <path fill="#2b2b2b" d="M160.819 72.117v-.004a.47.47 0 0 1-.478-.452.49.49 0 0 1-.442.522.466.466 0 0 1 .493.434l.004-.001a.491.491 0 0 1 .423-.499z" data-color="1"></path>
        <path fill="#2b2b2b" d="M157.328 75.197a.49.49 0 0 1-.442.522.466.466 0 0 1 .493.434l.004-.001a.488.488 0 0 1 .422-.499v-.004a.468.468 0 0 1-.477-.452z" data-color="1"></path>
        <path fill="#2b2b2b" d="M158.733 70.999h.002a.245.245 0 0 1 .211-.25v-.002a.235.235 0 0 1-.239-.226.244.244 0 0 1-.221.261.234.234 0 0 1 .247.217z" data-color="1"></path>
        <path fill="#2b2b2b" d="M151.911 75.089a.235.235 0 0 1-.239-.226.244.244 0 0 1-.221.261.235.235 0 0 1 .247.217h.002a.245.245 0 0 1 .211-.25v-.002z" data-color="1"></path>
        <path fill="#2b2b2b" d="M151.541 77.464a.244.244 0 0 1-.221.261.235.235 0 0 1 .247.217h.002a.245.245 0 0 1 .211-.25v-.002a.234.234 0 0 1-.239-.226z" data-color="1"></path>
        <path fill="#2b2b2b" d="M164.898 69.024h.002a.245.245 0 0 1 .211-.25v-.002a.235.235 0 0 1-.239-.226.244.244 0 0 1-.221.261.234.234 0 0 1 .247.217z" data-color="1"></path>
        <path fill="#2b2b2b" d="M147.475 75.988h.002a.245.245 0 0 1 .211-.25v-.002a.235.235 0 0 1-.239-.226.244.244 0 0 1-.221.261.234.234 0 0 1 .247.217z" data-color="1"></path>
        <path fill="#2b2b2b" d="M153.425 73.603a.245.245 0 0 1 .211-.25v-.002a.235.235 0 0 1-.239-.226.244.244 0 0 1-.221.261.235.235 0 0 1 .247.217h.002z" data-color="1"></path>
        <path fill="#2b2b2b" d="M149.637 74.103h.002a.245.245 0 0 1 .211-.25v-.002a.235.235 0 0 1-.239-.226.244.244 0 0 1-.221.261.234.234 0 0 1 .247.217z" data-color="1"></path>
        <path fill="#2b2b2b" d="M158.855 69.433h.002a.245.245 0 0 1 .211-.25v-.002a.235.235 0 0 1-.239-.226.244.244 0 0 1-.221.261.234.234 0 0 1 .247.217z" data-color="1"></path>
        <path fill="#2b2b2b" d="M166.982 68.904l.004-.001a.488.488 0 0 1 .422-.499V68.4a.47.47 0 0 1-.478-.452.49.49 0 0 1-.442.522.469.469 0 0 1 .494.434z" data-color="1"></path>
        <path fill="#2b2b2b" d="M162.404 69.362l.004-.001a.488.488 0 0 1 .422-.499v-.004a.47.47 0 0 1-.478-.452.49.49 0 0 1-.442.522.47.47 0 0 1 .494.434z" data-color="1"></path>
        <path fill="#2b2b2b" d="M154.688 71.216l.004-.001a.488.488 0 0 1 .422-.499v-.004a.47.47 0 0 1-.478-.452.49.49 0 0 1-.442.522.468.468 0 0 1 .494.434z" data-color="1"></path>
        <path fill="#2b2b2b" d="M156.71 70.771l.004-.001a.488.488 0 0 1 .422-.499v-.004a.47.47 0 0 1-.478-.452.49.49 0 0 1-.442.522.468.468 0 0 1 .494.434z" data-color="1"></path>
        <path fill="#2b2b2b" d="M110.437 87.666l-.074.065c-.025.022-.03.053-.041.082-1.923 2.491-4.036 4.761-6.445 6.655a.2.2 0 0 0 .247.315c2.478-1.948 4.644-4.282 6.609-6.844.053-.046.107-.091.159-.139 3.267-2.922 5.04-6.241 6.851-9.952.479-.98.944-1.989 1.395-2.965.69-1.494 1.394-3.012 2.169-4.49l.255-.463c.154-.286.321-.564.481-.846.22-.39.444-.766.666-1.15a26.56 26.56 0 0 1 1.378-2.017.2.2 0 0 0-.02-.265.201.201 0 0 0-.266-.012l-.15.122c-.076-.009-.152.01-.194.08l-.086.148-6.061 4.937c-1.961 1.598-3.756 3.221-4.167 5.498-.132.732-.102 1.481-.072 2.206.012.293.024.586.025.878.007 1.563-.168 4.011-1.101 6.016a58.33 58.33 0 0 1-1.558 2.141zm6.945-9.995c-1.453 2.977-2.879 5.697-5.078 8.151.017-.036.03-.074.047-.11 1.987-2.864 3.779-5.938 5.501-9.04-.158.335-.309.669-.47.999zm5.312-10.515c-.188.321-.376.645-.562.971a37.66 37.66 0 0 0-.773 1.336c-.687 1.227-1.374 2.486-2.081 3.781-1.902 3.483-3.833 7.017-5.976 10.332 3.461-10.745 7.715-15.06 9.392-16.42zm-9.159 9.34c.386-2.143 2.125-3.71 4.026-5.259l2.568-2.091c-1.946 2.33-4.51 6.374-6.817 13.132a19.71 19.71 0 0 0 .184-2.771c-.001-.297-.014-.595-.026-.893-.03-.702-.059-1.429.065-2.118z" data-color="1"></path>
        <path fill="#2b2b2b" d="M157.904 83.953c-13.804-2.029-28.15 3.811-35.472 7.471-.826.413-1.686.76-2.573 1.059 8.578-6.465 27.038-15.141 27.229-15.23a.2.2 0 1 0-.17-.362c-.196.092-19.675 9.246-27.963 15.781-.035.027-.049.068-.06.107a39.427 39.427 0 0 1-3.861.902c-1.081.13-2.128.304-3.099.53l-.639.102c-1.235.196-2.493.398-3.76.632 4.076-1.718 7.931-3.971 11.302-6.628.875.51 3.076-1.003 4.588-1.85 1.223-.685 2.475-1.394 3.375-2.473.641-.768 1.071-1.688 1.495-2.596l2.579-5.528c.883-1.893 1.812-3.847 3.401-5.192l-9.216 6.692c-.851.618-1.704 1.237-2.471 1.957-1.861 1.743-3.144 4.039-3.852 6.489-.326 1.128-.347 1.816-.167 2.202-3.917 3.083-8.492 5.621-13.307 7.394-.377.084-.753.165-1.13.26a.2.2 0 1 0 .098.388l.05-.011a.196.196 0 0 0 .137.081l-.002.005a.201.201 0 0 0 .197.204c2.684.048 5.259.276 7.71.678.015.011.022.031.041.037.024.008 2.246.85 3.605 4.655-.182.239-.26.717-.184 1.526.292 3.092 2.752 7.476 4.996 9.565 2.493 2.32 5.97 3.143 9.278 3.88a13.048 13.048 0 0 1-6.536-5.418c-.942-1.553-1.551-3.291-2.491-4.845-.568-.938-3.458-4.928-4.704-4.896-.875-2.427-2.078-3.686-2.903-4.304 2.142.404 4.189.938 6.119 1.616a.192.192 0 0 0 .066.012c.022 0 .041-.012.061-.019 1.175.553 2.285 1.207 3.269 2.099 1.156 1.048 2.131 2.332 3.479 3.114 1.693.983 3.738 1.044 5.687 1.079l6.574.119c-4.132-.322-7.281-3.795-11.087-5.467-2.54-1.115-5.362-1.419-8.111-1.377-4.333-1.497-9.214-2.317-14.517-2.443.138-.049.275-.102.413-.153 2.012-.45 4.024-.777 5.98-1.088l.295-.047c.013.003.023.013.037.013a.197.197 0 0 0 .048-.006c.092-.023.187-.043.28-.065 1.047-.167 2.077-.339 3.086-.528 5.443-.654 11.726-.223 13.006-.123.024.01.043.029.07.029h.001c.142-.003.284-.002.425 0 .609.019 1.221.136 1.827.302.613.243 1.245.485 1.891.726 1.615.801 3.076 1.963 4.107 3.145.202.232.396.472.591.711.479.591.976 1.203 1.587 1.688 1.542 1.223 3.503 1.479 5.606 1.479.493 0 .995-.014 1.5-.033l8.802-.331c.102-.003.184-.083.192-.184s-.06-.192-.16-.212c-3.519-.711-6.886-2.202-10.142-3.644a160.805 160.805 0 0 0-3.162-1.373c-4.31-1.797-8.337-2.651-12.637-2.675-.07-.002-.14 0-.211 0-.006-.001-.009-.007-.015-.008-.071-.006-5.092-.441-10.311-.152 1.587-.412 3.109-.925 4.536-1.639.849-.424 1.801-.88 2.828-1.347.016.001.028.011.044.008.039-.008 3.997-.824 11.719 1.51.488.21.959.459 1.399.782.741.545 1.389 1.239 2.226 1.617 1.052.474 2.254.386 3.399.288l3.861-.33c-2.442.062-4.497-1.786-6.828-2.536-1.429-.46-2.954-.494-4.44-.35-5.15-1.5-8.539-1.609-10.205-1.512 7.828-3.426 19.719-7.256 31.233-5.564a.2.2 0 0 0 .227-.169.195.195 0 0 0-.166-.226zm-10.549 17.118c-3.161-.46-7.913-1.765-12.991-5.323 7.002 2.476 14.941 4.673 18.096 5.52-1.009.084-2.8.138-5.105-.197zm-1.653.528c-2.585.096-5.046.066-6.842-1.36-.578-.458-1.06-1.053-1.525-1.627-.198-.244-.395-.487-.6-.722-.102-.117-.215-.232-.324-.348 4.275 2.517 8.176 3.533 10.907 3.928.146.021.28.035.422.053l-2.038.076zm-4.609-4.974c1.055.44 2.122.913 3.154 1.369 1.268.561 2.555 1.125 3.86 1.653-4.354-1.24-10.41-3.067-15.59-4.995a11.655 11.655 0 0 0-1.266-.548c3.285.296 6.476 1.117 9.842 2.521z" data-color="1"></path>
        <path fill="#2b2b2b" d="M102.727 98.472c.259-.634.396-1.343.507-2.043l1.169-7.385c.261-1.647.597-3.848-.138-5.764.209-.226.416-.453.589-.712.959-1.436 1.13-3.25 1.272-4.979l.479-5.836c-.482 3.395-3.291 5.85-5.037 8.803a3.697 3.697 0 0 0-.707-.194c-.71-.111-1.379.018-1.938.362-1.879-3.294-5.533-5.59-9.336-5.673l-.264-.003c-.368-.003-.715-.007-1.029-.089-.586-.154-1.083-.586-1.609-1.044-.15-.131-.3-.261-.452-.386-2.868-2.345-7.497-2.621-10.768-.644-.009.005-.013.014-.022.02a7.531 7.531 0 0 0-1.746-.535c-3.386-.563-6.542 1.576-8.621 3.234a48.692 48.692 0 0 0-2.335 1.989c-.43.39-.858.791-1.287 1.194-2.359 2.211-4.799 4.498-7.859 5.187-2.624.591-5.385-.082-8.056-.73a64.201 64.201 0 0 0-2.493-.572c-.727-.146-1.489-.231-2.15.135-.362.201-.624.502-.861.794-2.572 3.163-4.244 7.011-4.895 11.023-8.085-1.56-15.989-3.884-23.431-7.286a.201.201 0 0 0-.265.099.2.2 0 0 0 .099.265c7.477 3.418 15.416 5.745 23.533 7.31a23.07 23.07 0 0 0 .105 7.37l.068.38.384.031c1.573.124 3.116-.201 4.609-.517 1.439-.305 2.798-.592 4.181-.51 2.242.134 4.344 1.256 6.376 2.341l.32.17c5.306 2.825 12.141 5.932 19.319 5.932.856 0 1.719-.044 2.583-.139 2.957-.323 5.83-1.223 8.607-2.093 2.658-.833 5.406-1.694 8.185-2.027.275-.033.553-.062.831-.09 1.07-.109 2.167-.239 3.204-.616-.042.167-.088.332-.128.499.675.2 1.402-.197 1.852-.739.381-.459.624-1.01.899-1.541.923-1.023 1.608-2.313 2.221-3.701.102.097.218.186.348.263.29.175.621.259.955.301l-.278 2.069c-.023.173-.046.352-.002.521.044.169.173.328.346.353a.519.519 0 0 0 .319-.078c.342-.189.558-.54.742-.884a12.44 12.44 0 0 0 1.005-2.51l.012.008c.741.545 1.389 1.239 2.226 1.617 1.052.474 2.254.386 3.399.288l3.861-.33c-2.442.062-4.497-1.786-6.828-2.536-.671-.213-1.368-.317-2.07-.372zm-13.163-22.42c4.059.088 7.94 2.946 9.229 6.796.395 1.179.572 2.452.744 3.683l.488 3.499c.122.874-.098 1.935-.31 2.961-.07.339-.138.668-.191.979-.21 1.226-.541 2.324-.915 3.411l-.371.899a40.231 40.231 0 0 1-.658 1.508c-.025-.056-.036-.118-.07-.17-.844-1.283-2.255 1.313-2.42 1.974-.071.283-.111.573-.198.851-.101.32-.261.617-.407.919-.794-.723-.944-2.055-.717-3.106.033-.154.078-.305.122-.456a.489.489 0 0 0 .089-.286c.185-.553.426-1.096.681-1.66l.09-.203c.214.038.388-.188.488-.39.372-.75.694-1.535.828-2.361a5.495 5.495 0 0 0-.131-2.317c0-2.874-.997-5.609-2.01-7.638-.946-1.896-2.146-3.773-3.307-5.589a100.61 100.61 0 0 1-2.062-3.348c.256.026.51.038.758.04l.25.004zm-2.523 17.89c1.097-.026 2.159-.445 3.008-1.14.336.722.733 1.408 1.235 2.027a7.453 7.453 0 0 0 2.701 2.073c-.08.181-.159.364-.24.542-.2.443-.401.895-.578 1.361-.718-.231-1.62-.216-1.632-.215-2.341.06-4.636.521-6.821 1.369l-.092.036c.413-.455.78-.985 1.088-1.58.736-1.416 1.055-2.961 1.331-4.473zm-1.442-19.638c.144.118.286.242.429.365.339.296.691.589 1.078.833.005.01.004.022.01.032.804 1.461 1.746 2.936 2.657 4.361 1.146 1.794 2.333 3.649 3.255 5.497.745 1.492 1.483 3.385 1.776 5.415a1.857 1.857 0 0 0-.893-.429c-.183-.03-.395-.03-.526.102-.085.085-.118.206-.149.322-.223.855-.444 1.763-.188 2.608.155.514.476.96.682 1.456.126.303.205.621.278.942A6.463 6.463 0 0 1 92.06 94.2c-1.327-1.637-1.914-3.88-2.482-6.05-.296-1.13-.604-2.288-1.014-3.378.064-.457-.106-.891-.366-1.292-.019-.046-.029-.089-.051-.136-.725-1.531-2.079-2.596-3.273-3.535l-5.641-4.437c-.794-.625-1.695-1.327-2.691-1.906 2.847-1.404 6.698-1.09 9.057.838zm4.943 30.563c-.283.029-.566.058-.848.091-2.871.345-5.664 1.22-8.365 2.066-2.732.856-5.557 1.741-8.417 2.053-7.833.857-15.511-2.588-21.324-5.682l-.318-.17c-2.127-1.136-4.327-2.31-6.788-2.457-1.521-.091-3.008.225-4.448.53-1.354.287-2.648.553-3.936.52a22.125 22.125 0 0 1-.038-6.61c11.053 2.044 22.42 2.685 33.402 2.685 2.594 0 5.168-.036 7.71-.097a19.476 19.476 0 0 1 2.271 2.279.5.5 0 1 0 .767-.643 20.517 20.517 0 0 0-1.59-1.678c2.043-.057 4.071-.125 6.065-.207a.2.2 0 0 0 .191-.208c-.004-.11-.074-.195-.208-.191-2.124.088-4.278.163-6.455.222a20.572 20.572 0 0 0-6.983-4.138.5.5 0 0 0-.329.945 19.58 19.58 0 0 1 5.812 3.229c-13.155.3-27.114-.097-40.6-2.592.619-3.851 2.226-7.545 4.694-10.58.183-.225.365-.437.571-.551.397-.22.965-.13 1.467-.029.816.165 1.634.364 2.455.563 2.782.676 5.659 1.378 8.512.734 3.325-.748 5.866-3.13 8.323-5.433.426-.399.85-.796 1.276-1.183a46.243 46.243 0 0 1 2.287-1.948c1.928-1.539 4.839-3.528 7.833-3.029 1.936.322 3.608 1.638 5.084 2.799l5.641 4.437.039.031c-.257.369-.449.878-.409 1.119.04.241.22.432.391.607l1.3 1.325c.146.149.294.299.469.413.165.107.348.18.525.265-1.868.363-3.791-.264-5.125-.899-1.013-.482-1.997-1.088-2.948-1.674-.775-.478-1.578-.971-2.404-1.406-.709-.372-1.551-.723-2.407-.505-.591.15-1.053.546-1.425.864L68.06 84.33a.5.5 0 0 0 .65.76l4.202-3.596c.323-.276.656-.562 1.021-.655.527-.133 1.127.123 1.695.422.796.418 1.583.903 2.345 1.372.974.6 1.981 1.221 3.043 1.726 2.32 1.104 4.519 1.394 6.362.838.048-.015.1-.034.151-.052.055.074.114.145.185.202.352.982.628 2.031.897 3.057.302 1.152.61 2.324 1.03 3.435a4.002 4.002 0 0 1-2.528 1.075c-.017-.015-.029-.035-.049-.048-.267-.174-.396-.389-.576-.686a5.981 5.981 0 0 0-.355-.539c-.586-.771-1.27-1.458-1.931-2.124a43.149 43.149 0 0 1-.967-.994c-1.15-1.236-1.786-2.264-2.061-3.333a.5.5 0 1 0-.969.249c.413 1.606 1.509 2.918 2.297 3.766.322.346.656.682.99 1.018.667.671 1.298 1.305 1.844 2.023.118.155.208.306.295.45.138.228.286.46.496.678-.281 1.563-.575 3.176-1.303 4.581-.777 1.5-2.026 2.548-3.34 2.806l-3.362.659 3.41.33c.125.012.248.018.37.018.979 0 1.89-.363 2.773-.716l.403-.16a19.184 19.184 0 0 1 6.484-1.301c.432-.016.984.061 1.306.16-.026.099-.057.196-.079.296-.296 1.371-.049 3.134 1.096 4.116-1.014.457-2.145.582-3.343.704zm9.014-5.696c-.154-.093-.318-.246-.354-.465.531-1.46 1.02-2.888 1.307-4.566.052-.3.118-.618.185-.945.219-1.058.467-2.257.321-3.302l-.488-3.499c-.178-1.276-.362-2.596-.786-3.862a10 10 0 0 0-.354-.897 1.83 1.83 0 0 1 1.32-.283c.973.151 1.956.896 2.444 1.852.822 1.607.605 3.525.264 5.685l-1.165 7.363c-.329-.17-.832-.01-1.194.372a2.875 2.875 0 0 0-.635 1.059c-.114.342-.163.702-.211 1.06l-.082.607a1.514 1.514 0 0 1-.572-.179z" data-color="1"></path>
    </g>
</svg>